<svg width="46" height="31" viewBox="0 0 46 31" fill="none" xmlns="http://www.w3.org/2000/svg">
<rect x="0.5" y="0.5" width="45" height="30" rx="4" fill="#20D876"/>
<path d="M10.27 20.5V10.56H13.798C15.52 10.56 16.5 11.624 16.5 12.926C16.5 13.92 15.912 14.662 15.114 14.97C16.234 15.25 17.102 16.132 17.102 17.616C17.102 19.31 15.968 20.5 13.7 20.5H10.27ZM11.852 19.1H13.602C14.904 19.1 15.534 18.484 15.534 17.462C15.534 16.454 14.904 15.754 13.574 15.754H11.852V19.1ZM11.852 14.522H13.476C14.47 14.522 14.974 13.976 14.974 13.206C14.974 12.436 14.47 11.96 13.476 11.96H11.852V14.522ZM21.8674 20.64C19.8234 20.64 18.2134 19.31 18.2134 16.86V10.56H19.7954V16.86C19.7954 18.526 20.8034 19.142 21.8674 19.142C22.9454 19.142 23.9534 18.526 23.9534 16.86V10.56H25.5354V16.86C25.5354 19.31 23.9254 20.64 21.8674 20.64ZM30.2227 20.5V16.37L26.6527 10.56H28.4447L31.0067 14.886L33.5827 10.56H35.3747L31.8047 16.37V20.5H30.2227Z" fill="#F9F9F9"/>
</svg>
