<svg width="24" height="24" viewBox="0 0 24 24" fill="none" xmlns="http://www.w3.org/2000/svg">
<g id="CopyTrade 1" clip-path="url(#clip0_33_441)">
<path id="Vector" d="M23.1997 4.96008C23.1911 4.94109 23.1812 4.92291 23.1703 4.90538C23.1128 4.80431 23.042 4.71005 22.9582 4.62525L18.7787 0.396844C18.6729 0.289734 18.5494 0.202266 18.4153 0.136781C18.4131 0.135562 18.4109 0.134578 18.4087 0.133406C18.4056 0.131953 18.4026 0.130453 18.3996 0.129047C18.3871 0.122813 18.3744 0.117141 18.3614 0.112031C18.1943 0.0392813 18.0126 0 17.8286 0H10.4771C9.74044 0 9.14114 0.599297 9.14114 1.33594V4.94198H1.99219C1.25555 4.94198 0.65625 5.54123 0.65625 6.27787V22.6641C0.65625 23.4007 1.25555 24 1.99219 24H13.4273C14.1639 24 14.7632 23.4007 14.7632 22.6641V19.058H22.008C22.7446 19.058 23.3439 18.4588 23.3439 17.7221V5.56434C23.3439 5.35097 23.2938 5.14514 23.1997 4.96008ZM21.6988 4.68473H19.0577C18.838 4.68473 18.6593 4.506 18.6593 4.2863V1.60969L21.6988 4.68473ZM10.0786 6.55167L13.1181 9.62677H10.4771C10.2574 9.62677 10.0786 9.44803 10.0786 9.22833V6.55167ZM13.8257 22.6641C13.8257 22.8838 13.647 23.0625 13.4273 23.0625H1.99219C1.77248 23.0625 1.59375 22.8838 1.59375 22.6641V6.27787C1.59375 6.05817 1.77248 5.87948 1.99219 5.87948H9.14114V9.22828C9.14114 9.96492 9.74044 10.5642 10.4771 10.5642H13.8257V12.1981H12.3238C12.0649 12.1981 11.855 12.408 11.855 12.6669C11.855 12.9257 12.0649 13.1356 12.3238 13.1356H13.8257V22.6641ZM22.008 18.1205H14.7632V13.1357H17.9498L16.8712 14.2098C16.6877 14.3925 16.6871 14.6893 16.8698 14.8727C16.9613 14.9647 17.0816 15.0107 17.2019 15.0107C17.3215 15.0107 17.4412 14.9652 17.5327 14.8741L19.4077 13.0069C19.4957 12.9192 19.5454 12.8001 19.5457 12.6757C19.5457 12.6742 19.5455 12.6728 19.5454 12.6712C19.5454 12.6698 19.5457 12.6684 19.5457 12.6669C19.5457 12.5132 19.4713 12.3772 19.357 12.2917L17.5341 10.4612C17.3514 10.2778 17.0546 10.2771 16.8712 10.4598C16.6877 10.6425 16.6871 10.9393 16.8698 11.1228L17.9408 12.1982H14.7632V10.5064C14.7632 10.1525 14.6262 9.81895 14.3775 9.56728L10.198 5.33888C10.1604 5.30081 10.1204 5.26556 10.0787 5.23256V1.33594C10.0787 1.11623 10.2574 0.9375 10.4771 0.9375H17.7219V4.2863C17.7219 5.02294 18.3212 5.62223 19.0578 5.62223H22.4065V17.7221C22.4064 17.9418 22.2277 18.1205 22.008 18.1205Z" fill="white"/>
<path id="Vector_2" d="M3.71484 13.125H9.8858C10.1447 13.125 10.3545 12.9151 10.3545 12.6562C10.3545 12.3974 10.1447 12.1875 9.8858 12.1875H3.71484C3.45595 12.1875 3.24609 12.3974 3.24609 12.6562C3.24609 12.9151 3.45595 13.125 3.71484 13.125Z" fill="white"/>
<path id="Vector_3" d="M3.71484 15.6094H8.85811C9.117 15.6094 9.32686 15.3995 9.32686 15.1406C9.32686 14.8818 9.117 14.6719 8.85811 14.6719H3.71484C3.45595 14.6719 3.24609 14.8818 3.24609 15.1406C3.24609 15.3995 3.45595 15.6094 3.71484 15.6094Z" fill="white"/>
<path id="Vector_4" d="M11.1909 15.6096C11.4499 15.6096 11.6599 15.3996 11.6599 15.1406C11.6599 14.8816 11.4499 14.6716 11.1909 14.6716C10.9319 14.6716 10.7219 14.8816 10.7219 15.1406C10.7219 15.3996 10.9319 15.6096 11.1909 15.6096Z" fill="white"/>
<path id="Vector_5" d="M11.2019 17.1875H3.71484C3.45595 17.1875 3.24609 17.3974 3.24609 17.6562C3.24609 17.9151 3.45595 18.125 3.71484 18.125H11.2019C11.4607 18.125 11.6706 17.9151 11.6706 17.6562C11.6706 17.3974 11.4607 17.1875 11.2019 17.1875Z" fill="white"/>
<path id="Vector_6" d="M11.2019 19.6875H3.71484C3.45595 19.6875 3.24609 19.8974 3.24609 20.1562C3.24609 20.4151 3.45595 20.625 3.71484 20.625H11.2019C11.4607 20.625 11.6706 20.4151 11.6706 20.1562C11.6706 19.8974 11.4607 19.6875 11.2019 19.6875Z" fill="white"/>
</g>
<defs>
<clipPath id="clip0_33_441">
<rect width="24" height="24" fill="white"/>
</clipPath>
</defs>
</svg>
