<svg width="25" height="24" viewBox="0 0 25 24" fill="none" xmlns="http://www.w3.org/2000/svg">
<g id="CopyTrade 1" clip-path="url(#clip0_33_395)">
<path id="Vector" d="M23.533 4.96008C23.5243 4.94109 23.5145 4.92291 23.5035 4.90538C23.446 4.80431 23.3752 4.71005 23.2914 4.62525L19.112 0.396844C19.0061 0.289734 18.8827 0.202266 18.7486 0.136781C18.7464 0.135562 18.7441 0.134578 18.7419 0.133406C18.7389 0.131953 18.7359 0.130453 18.7328 0.129047C18.7204 0.122813 18.7077 0.117141 18.6947 0.112031C18.5275 0.0392813 18.3459 0 18.1618 0H10.8103C10.0737 0 9.47439 0.599297 9.47439 1.33594V4.94198H2.32544C1.5888 4.94198 0.989502 5.54123 0.989502 6.27787V22.6641C0.989502 23.4007 1.5888 24 2.32544 24H13.7605C14.4971 24 15.0964 23.4007 15.0964 22.6641V19.058H22.3412C23.0778 19.058 23.6771 18.4588 23.6771 17.7221V5.56434C23.6771 5.35097 23.627 5.14514 23.533 4.96008ZM22.032 4.68473H19.391C19.1713 4.68473 18.9925 4.506 18.9925 4.2863V1.60969L22.032 4.68473ZM10.4119 6.55167L13.4513 9.62677H10.8103C10.5906 9.62677 10.4119 9.44803 10.4119 9.22833V6.55167ZM14.159 22.6641C14.159 22.8838 13.9803 23.0625 13.7605 23.0625H2.32544C2.10574 23.0625 1.927 22.8838 1.927 22.6641V6.27787C1.927 6.05817 2.10574 5.87948 2.32544 5.87948H9.47439V9.22828C9.47439 9.96492 10.0737 10.5642 10.8103 10.5642H14.159V12.1981H12.657C12.3981 12.1981 12.1883 12.408 12.1883 12.6669C12.1883 12.9257 12.3981 13.1356 12.657 13.1356H14.159V22.6641ZM22.3413 18.1205H15.0965V13.1357H18.283L17.2044 14.2098C17.0209 14.3925 17.0203 14.6893 17.203 14.8727C17.2946 14.9647 17.4149 15.0107 17.5352 15.0107C17.6548 15.0107 17.7745 14.9652 17.8659 14.8741L19.7409 13.0069C19.829 12.9192 19.8786 12.8001 19.8789 12.6757C19.8789 12.6742 19.8787 12.6728 19.8787 12.6712C19.8787 12.6698 19.8789 12.6684 19.8789 12.6669C19.8789 12.5132 19.8046 12.3772 19.6903 12.2917L17.8673 10.4612C17.6846 10.2778 17.3878 10.2771 17.2044 10.4598C17.021 10.6425 17.0203 10.9393 17.203 11.1228L18.274 12.1982H15.0965V10.5064C15.0965 10.1525 14.9595 9.81895 14.7107 9.56728L10.5313 5.33888C10.4937 5.30081 10.4537 5.26556 10.4119 5.23256V1.33594C10.4119 1.11623 10.5907 0.9375 10.8104 0.9375H18.0551V4.2863C18.0551 5.02294 18.6544 5.62223 19.3911 5.62223H22.7397V17.7221C22.7396 17.9418 22.5609 18.1205 22.3413 18.1205Z" fill="#141414"/>
<path id="Vector_2" d="M4.0481 13.125H10.219C10.4779 13.125 10.6878 12.9151 10.6878 12.6562C10.6878 12.3974 10.4779 12.1875 10.219 12.1875H4.0481C3.78921 12.1875 3.57935 12.3974 3.57935 12.6562C3.57935 12.9151 3.78921 13.125 4.0481 13.125Z" fill="#141414"/>
<path id="Vector_3" d="M4.0481 15.6094H9.19136C9.45025 15.6094 9.66011 15.3995 9.66011 15.1406C9.66011 14.8818 9.45025 14.6719 9.19136 14.6719H4.0481C3.78921 14.6719 3.57935 14.8818 3.57935 15.1406C3.57935 15.3995 3.78921 15.6094 4.0481 15.6094Z" fill="#141414"/>
<path id="Vector_4" d="M11.5242 15.6096C11.7832 15.6096 11.9931 15.3996 11.9931 15.1406C11.9931 14.8816 11.7832 14.6716 11.5242 14.6716C11.2651 14.6716 11.0552 14.8816 11.0552 15.1406C11.0552 15.3996 11.2651 15.6096 11.5242 15.6096Z" fill="#141414"/>
<path id="Vector_5" d="M11.5351 17.1875H4.0481C3.78921 17.1875 3.57935 17.3974 3.57935 17.6562C3.57935 17.9151 3.78921 18.125 4.0481 18.125H11.5351C11.794 18.125 12.0039 17.9151 12.0039 17.6562C12.0039 17.3974 11.794 17.1875 11.5351 17.1875Z" fill="#141414"/>
<path id="Vector_6" d="M11.5351 19.6875H4.0481C3.78921 19.6875 3.57935 19.8974 3.57935 20.1562C3.57935 20.4151 3.78921 20.625 4.0481 20.625H11.5351C11.794 20.625 12.0039 20.4151 12.0039 20.1562C12.0039 19.8974 11.794 19.6875 11.5351 19.6875Z" fill="#141414"/>
</g>
<defs>
<clipPath id="clip0_33_395">
<rect width="24" height="24" fill="white" transform="translate(0.333252)"/>
</clipPath>
</defs>
</svg>
