<svg width="24" height="24" viewBox="0 0 24 24" fill="none" xmlns="http://www.w3.org/2000/svg">
<path d="M21.2699 9.17993C20.9799 8.71993 20.6699 8.28993 20.3499 7.88993C19.9799 7.41993 19.2799 7.37993 18.8599 7.79993L15.8599 10.7999C16.0799 11.4599 16.1199 12.2199 15.9199 13.0099C15.5699 14.4199 14.4299 15.5599 13.0199 15.9099C12.2299 16.1099 11.4699 16.0699 10.8099 15.8499C10.8099 15.8499 9.37995 17.2799 8.34995 18.3099C7.84995 18.8099 8.00995 19.6899 8.67995 19.9499C9.74995 20.3599 10.8599 20.5699 11.9999 20.5699C13.7799 20.5699 15.5099 20.0499 17.0899 19.0799C18.6999 18.0799 20.1499 16.6099 21.3199 14.7399C22.2699 13.2299 22.2199 10.6899 21.2699 9.17993Z" fill="black"/>
<path d="M14.0199 9.98001L9.97989 14.02C9.46989 13.5 9.13989 12.78 9.13989 12C9.13989 10.43 10.4199 9.14001 11.9999 9.14001C12.7799 9.14001 13.4999 9.47001 14.0199 9.98001Z" fill="black"/>
<path d="M18.25 5.75005L14.86 9.14005C14.13 8.40005 13.12 7.96005 12 7.96005C9.76 7.96005 7.96 9.77005 7.96 12.0001C7.96 13.1201 8.41 14.1301 9.14 14.8601L5.76 18.2501H5.75C4.64 17.3501 3.62 16.2001 2.75 14.8401C1.75 13.2701 1.75 10.7201 2.75 9.15005C3.91 7.33005 5.33 5.90005 6.91 4.92005C8.49 3.96005 10.22 3.43005 12 3.43005C14.23 3.43005 16.39 4.25005 18.25 5.75005Z" fill="black"/>
<path d="M14.8601 12C14.8601 13.57 13.5801 14.86 12.0001 14.86C11.9401 14.86 11.8901 14.86 11.8301 14.84L14.8401 11.83C14.8601 11.89 14.8601 11.94 14.8601 12Z" fill="black"/>
<path d="M21.7699 2.23C21.4699 1.93 20.9799 1.93 20.6799 2.23L2.22988 20.69C1.92988 20.99 1.92988 21.48 2.22988 21.78C2.37988 21.92 2.56988 22 2.76988 22C2.96988 22 3.15988 21.92 3.30988 21.77L21.7699 3.31C22.0799 3.01 22.0799 2.53 21.7699 2.23Z" fill="black"/>
</svg>
