<svg width="20" height="20" viewBox="0 0 20 20" fill="none" xmlns="http://www.w3.org/2000/svg">
<path d="M9.99994 14.4583C10.7501 14.4583 11.3583 13.8502 11.3583 13.1C11.3583 12.3498 10.7501 11.7416 9.99994 11.7416C9.24975 11.7416 8.6416 12.3498 8.6416 13.1C8.6416 13.8502 9.24975 14.4583 9.99994 14.4583Z" fill="#B9B9B9"/>
<path d="M15.2334 7.94169V6.90002C15.2334 4.65002 14.6917 1.66669 10.0001 1.66669C5.30841 1.66669 4.76675 4.65002 4.76675 6.90002V7.94169C2.43341 8.23335 1.66675 9.41669 1.66675 12.325V13.875C1.66675 17.2917 2.70841 18.3334 6.12508 18.3334H13.8751C17.2917 18.3334 18.3334 17.2917 18.3334 13.875V12.325C18.3334 9.41669 17.5667 8.23335 15.2334 7.94169ZM10.0001 15.6167C8.60842 15.6167 7.48341 14.4834 7.48341 13.1C7.48341 11.7084 8.61675 10.5834 10.0001 10.5834C11.3834 10.5834 12.5167 11.7167 12.5167 13.1C12.5167 14.4917 11.3917 15.6167 10.0001 15.6167ZM6.12508 7.86669C6.05841 7.86669 6.00008 7.86669 5.93341 7.86669V6.90002C5.93341 4.45835 6.62508 2.83335 10.0001 2.83335C13.3751 2.83335 14.0667 4.45835 14.0667 6.90002V7.87502C14.0001 7.87502 13.9417 7.87502 13.8751 7.87502H6.12508V7.86669Z" fill="#B9B9B9"/>
</svg>
