<svg width="212" height="37" viewBox="0 0 212 37" fill="none" xmlns="http://www.w3.org/2000/svg">
<path d="M22.8357 22.786H16.4426V16.4324H30.0136V33.6571H22.8357V30.352L22.6572 30.2416C22.61 30.2908 22.3895 30.5079 21.997 30.8936C21.6038 31.2793 21.384 31.4905 21.3361 31.527C21.2889 31.5636 21.0894 31.7479 20.7375 32.0777C20.3864 32.4082 20.1542 32.5977 20.0411 32.6469C19.9279 32.6954 19.6957 32.8394 19.3446 33.0781C18.9935 33.3169 18.7192 33.4609 18.5233 33.5101C18.3275 33.5586 18.0474 33.6571 17.684 33.8041C17.3212 33.9511 16.9759 34.0458 16.6487 34.0883C16.3215 34.1316 15.9435 34.1771 15.5147 34.2264C15.086 34.2756 14.6398 34.3002 14.1755 34.3002C10.6873 34.3002 7.62216 32.8707 4.97921 30.0125C2.33698 27.1543 1.01514 23.6679 1.01514 19.5547C1.01514 15.417 2.51255 11.9253 5.50591 9.07906C8.5 6.23277 12.0861 4.81 16.2642 4.81C19.4541 4.81 22.2995 5.70678 24.7995 7.49961C27.2996 9.29318 29.0371 11.6709 30.0136 14.6336H21.746C20.3059 12.699 18.4784 11.7321 16.2642 11.7321C14.2408 11.7321 12.5207 12.4968 11.1038 14.027C9.6869 15.5572 8.97882 17.4001 8.97882 19.554C8.97882 21.684 9.71084 23.5142 11.1756 25.0444C12.6396 26.5746 14.396 27.3393 16.4426 27.3393C19.4904 27.3393 21.6212 25.8218 22.8357 22.786Z" fill="#3CD981"/>
<path d="M53.8713 30.9667C51.4075 33.1886 48.4577 34.2995 45.0239 34.2995C41.5895 34.2995 38.6403 33.1886 36.1766 30.9667C33.7121 28.7449 32.4802 26.0061 32.4802 22.7494C32.4802 19.4928 33.7121 16.7599 36.1766 14.55C38.6403 12.3409 41.5902 11.236 45.0239 11.236C48.4584 11.236 51.4075 12.3409 53.8713 14.55C56.3357 16.7599 57.5676 19.4928 57.5676 22.7494C57.5676 26.0053 56.3357 28.7442 53.8713 30.9667ZM41.7832 26.0822C42.6755 27.0185 43.7558 27.487 45.0239 27.487C46.2921 27.487 47.3694 27.0192 48.256 26.0822C49.1432 25.1458 49.5865 24.0379 49.5865 22.7584C49.5865 21.4789 49.1432 20.368 48.256 19.4257C47.3694 18.4826 46.2921 18.0118 45.0239 18.0118C43.7558 18.0118 42.6755 18.4826 41.7832 19.4257C40.8901 20.368 40.4439 21.4789 40.4439 22.7584C40.4432 24.0379 40.8901 25.1451 41.7832 26.0822Z" fill="#3CD981"/>
<path d="M69.0818 34.1226H60.7068L63.6581 4.98529H76.5297C79.5499 4.98529 82.0369 6.01935 83.921 8.05913C85.8116 10.1056 86.6125 12.6982 86.302 15.7646C85.9683 18.8131 84.6494 21.3818 82.3808 23.4045C80.1158 25.4233 77.4445 26.447 74.441 26.447H69.8501L69.0818 34.1226ZM61.7116 33.1908H68.2642L69.0318 25.5151H74.4403C77.2189 25.5151 79.6906 24.5683 81.7858 22.7002C83.8767 20.8357 85.0934 18.4692 85.4002 15.6639C85.6854 12.846 84.9867 10.5674 83.263 8.70076C81.5573 6.85347 79.2909 5.91714 76.529 5.91714H64.4742L61.7116 33.1908ZM74.4758 19.9829H69.5984L70.4603 11.4486H75.2434C76.283 11.4486 77.1195 11.9365 77.7304 12.8997C78.3079 13.8114 78.5603 14.7716 78.4805 15.7549C78.3739 16.7405 77.9386 17.6873 77.1841 18.5826C76.4013 19.5122 75.4901 19.9829 74.4758 19.9829ZM70.6039 19.0511H74.4758C75.226 19.0511 75.8876 18.6982 76.4992 17.9723C77.1311 17.2225 77.4939 16.4458 77.5787 15.6647C77.6411 14.8954 77.4431 14.1531 76.9708 13.4093C76.5319 12.7176 75.9674 12.3812 75.2434 12.3812H71.2772L70.6039 19.0511Z" fill="#E7E7E7"/>
<path d="M95.3648 34.1226H86.9897L89.2801 11.412H97.4194L97.2003 13.7487C98.9081 11.7701 100.792 10.7697 102.813 10.7697H103.315L102.417 19.6898H99.5625C98.8145 19.6898 98.1579 19.9628 97.5536 20.5239C96.9485 21.0872 96.6141 21.7355 96.5306 22.507L95.3648 34.1226ZM87.9953 33.1908H94.5479L95.631 22.4077C95.7391 21.4102 96.1817 20.5455 96.9471 19.833C97.7146 19.1198 98.5947 18.7579 99.5639 18.7579H101.601L102.308 11.7269C100.49 11.9089 98.7775 13.0773 97.2111 15.2073L97.0755 15.3924H96.1374L96.4233 12.3439H90.0992L87.9953 33.1908Z" fill="#E7E7E7"/>
<path d="M114.365 34.765C111.014 34.765 108.241 33.6011 106.126 31.3047C104.005 29.0023 103.105 26.1075 103.451 22.7002C103.783 19.3138 105.253 16.4458 107.821 14.1778C110.381 11.9156 113.374 10.7689 116.714 10.7689C120.072 10.7689 122.841 11.9268 124.944 14.2106C127.053 16.5003 127.952 19.3884 127.619 22.7949C127.532 23.6119 127.376 24.3789 127.153 25.0787L127.05 25.3995H111.765C111.947 25.9427 112.269 26.3933 112.741 26.7686C113.365 27.2647 114.182 27.5161 115.169 27.5161C116.368 27.5161 117.35 27.0618 118.172 26.1269L118.307 25.9732H126.913L126.637 26.6253C125.605 29.0627 123.953 31.0503 121.727 32.532C119.502 34.0145 117.025 34.765 114.365 34.765ZM116.713 11.7015C113.596 11.7015 110.802 12.7729 108.411 14.885C106.025 16.992 104.66 19.654 104.352 22.7957C104.034 25.921 104.853 28.5681 106.783 30.6646C108.72 32.767 111.271 33.8332 114.365 33.8332C116.847 33.8332 119.158 33.1326 121.234 31.7501C123.105 30.5042 124.541 28.877 125.508 26.9051H118.704C117.738 27.9287 116.55 28.448 115.168 28.448C113.976 28.448 112.972 28.1309 112.186 27.5057C111.387 26.8708 110.9 26.0307 110.739 25.0086L110.654 24.4677H126.386C126.539 23.9171 126.65 23.3232 126.717 22.698C127.022 19.5771 126.205 16.936 124.285 14.8515C122.36 12.7617 119.813 11.7015 116.713 11.7015ZM120.455 21.0297H110.925L111.199 20.3784C111.576 19.4839 112.212 18.6997 113.091 18.0469C113.982 17.3851 114.986 17.0494 116.079 17.0494C117.161 17.0494 118.098 17.3896 118.863 18.0603C119.62 18.7236 120.111 19.5294 120.323 20.4567L120.455 21.0297ZM112.377 20.0979H119.259C119.051 19.6017 118.726 19.1638 118.276 18.7699C117.671 18.2394 116.952 17.9813 116.08 17.9813C115.169 17.9813 114.365 18.2498 113.622 18.8019C113.104 19.1869 112.687 19.6211 112.377 20.0979Z" fill="#E7E7E7"/>
<path d="M138.755 34.765C135.641 34.765 133.224 33.5922 131.569 31.2786C129.936 28.9956 129.283 26.1217 129.627 22.7367C129.981 19.3421 131.211 16.4749 133.283 14.2113C135.374 11.9268 138.002 10.7689 141.094 10.7689C142.686 10.7689 144.107 11.1666 145.317 11.9514C146.118 12.47 146.758 13.0646 147.231 13.7278L148.113 4.98456H156.47L153.537 34.1219H145.167L145.37 31.918C144.786 32.5529 144.053 33.1214 143.177 33.6153C141.825 34.3785 140.337 34.765 138.755 34.765ZM141.094 11.7015C138.262 11.7015 135.856 12.7609 133.943 14.8507C132.009 16.9621 130.861 19.6487 130.528 22.8352C130.208 25.9807 130.804 28.636 132.299 30.7265C133.794 32.817 135.906 33.8332 138.755 33.8332C140.183 33.8332 141.525 33.4847 142.743 32.7976C143.958 32.1127 144.859 31.2823 145.421 30.3296L145.554 30.1057H146.45L146.164 33.1908H152.721L155.466 5.91716H148.931L147.967 15.4655H147.114L146.998 15.179C146.62 14.2456 145.892 13.4249 144.835 12.7408C143.771 12.0514 142.513 11.7015 141.094 11.7015ZM141.889 27.7325C140.534 27.7325 139.434 27.2251 138.622 26.2246C137.818 25.2353 137.477 24.0625 137.608 22.739C137.738 21.4304 138.307 20.2762 139.3 19.3078C140.3 18.3334 141.48 17.8395 142.808 17.8395C144.151 17.8395 145.27 18.3423 146.136 19.3346C146.998 20.3232 147.382 21.4975 147.277 22.824C147.12 24.1513 146.512 25.3055 145.468 26.2724C144.424 27.2408 143.219 27.7325 141.889 27.7325ZM142.809 18.7713C141.705 18.7713 140.761 19.1682 139.924 19.9845C139.081 20.8066 138.618 21.7385 138.509 22.8337C138.402 23.9133 138.667 24.8265 139.318 25.627C139.959 26.4164 140.8 26.8006 141.889 26.8006C143.003 26.8006 143.976 26.4015 144.863 25.58C145.751 24.7564 146.246 23.8245 146.377 22.7293C146.46 21.6721 146.162 20.7589 145.463 19.9568C144.767 19.1593 143.898 18.7713 142.809 18.7713Z" fill="#E7E7E7"/>
<path d="M165.411 34.1226H157.036L159.327 11.412H167.702L165.411 34.1226ZM158.041 33.1908H164.594L166.696 12.3446H160.144L158.041 33.1908ZM163.61 11.077C162.32 11.077 161.233 10.6078 160.38 9.68262C159.52 8.75077 159.152 7.61374 159.285 6.30214C159.415 4.98457 160.004 3.86396 161.033 2.97314C162.053 2.09053 163.214 1.64288 164.486 1.64288C165.798 1.64288 166.896 2.10098 167.748 3.00522C168.61 3.91842 168.979 5.05992 168.847 6.39764C168.716 7.69059 168.129 8.80598 167.103 9.7147C166.081 10.6189 164.906 11.077 163.61 11.077ZM164.485 2.57548C163.418 2.57548 162.48 2.93957 161.616 3.68714C160.762 4.42725 160.294 5.31359 160.186 6.39838C160.081 7.44215 160.359 8.3061 161.037 9.04174C161.723 9.78409 162.565 10.1452 163.61 10.1452C164.698 10.1452 165.647 9.77364 166.511 9.00891C167.368 8.25015 167.837 7.36455 167.945 6.30214C168.051 5.23749 167.774 4.37129 167.097 3.65431C166.412 2.92838 165.558 2.57548 164.485 2.57548Z" fill="#E7E7E7"/>
<path d="M180.52 34.765C177.122 34.765 174.298 33.6026 172.124 31.3099C169.941 29.0068 169.009 26.1105 169.355 22.7002C169.688 19.3354 171.189 16.4734 173.817 14.1934C176.437 11.9209 179.479 10.7697 182.859 10.7697C185.836 10.7697 188.421 11.6993 190.542 13.5324C192.678 15.3774 193.867 17.7686 194.078 20.6395L194.114 21.1409H185.827L185.71 20.8566C185.444 20.2105 185.033 19.6927 184.456 19.2749C183.885 18.8624 183.246 18.6624 182.502 18.6624C181.419 18.6624 180.467 19.0608 179.593 19.8815C178.718 20.7029 178.237 21.6572 178.122 22.7987C178.01 23.9237 178.283 24.8593 178.959 25.6584C179.631 26.453 180.48 26.8387 181.555 26.8387C182.299 26.8387 183.005 26.6275 183.655 26.2112C184.321 25.7845 184.876 25.2316 185.302 24.5684L185.436 24.3595H193.771L193.618 24.9466C192.868 27.819 191.229 30.2013 188.748 32.0262C186.275 33.8436 183.507 34.765 180.52 34.765ZM182.859 11.7015C179.699 11.7015 176.853 12.7796 174.401 14.9059C171.959 17.0248 170.564 19.6793 170.256 22.7964C169.939 25.9195 170.786 28.5644 172.773 30.6601C174.77 32.7663 177.376 33.8339 180.52 33.8339C183.314 33.8339 185.905 32.9707 188.22 31.2674C190.355 29.6969 191.816 27.6885 192.573 25.2906H185.917C185.44 25.974 184.841 26.5485 184.133 27.0013C183.338 27.5109 182.471 27.7698 181.555 27.7698C180.222 27.7698 179.118 27.2647 178.276 26.2687C177.438 25.2779 177.083 24.0782 177.221 22.7017C177.357 21.3416 177.95 20.1605 178.983 19.1914C180.016 18.2215 181.2 17.7291 182.502 17.7291C183.426 17.7291 184.258 17.9924 184.976 18.5117C185.6 18.9638 186.084 19.5331 186.415 20.2083H193.125C192.839 17.8186 191.775 15.8146 189.959 14.2456C188.005 12.5573 185.616 11.7015 182.859 11.7015Z" fill="#E7E7E7"/>
<path d="M208.318 34.1226H204.034C201.74 34.1226 199.891 33.4959 198.537 32.2612C197.154 30.9973 196.575 29.159 196.816 26.7961L197.676 18.0193H195.783L196.448 11.4135H198.359L198.859 6.49237H207.234L206.734 11.4135H210.61L209.923 18.0193H206.051L205.324 25.4226C205.266 25.9135 205.321 26.2575 205.49 26.4552C205.64 26.632 205.915 26.7238 206.307 26.7282H209.072L208.318 34.1226ZM196.788 17.0859H198.68L197.718 26.8901C197.506 28.968 197.971 30.4959 199.14 31.5628C200.322 32.6424 201.969 33.19 204.034 33.19H207.502L208.067 27.6579H206.302C205.637 27.6504 205.136 27.4519 204.809 27.067C204.463 26.6611 204.334 26.0732 204.423 25.3174L205.231 17.0859H209.108L209.601 12.3439H205.728L206.228 7.42273H199.675L199.175 12.3439H197.265L196.788 17.0859Z" fill="#E7E7E7"/>
</svg>
