<svg width="212" height="37" viewBox="0 0 212 37" fill="none" xmlns="http://www.w3.org/2000/svg">
<path d="M22.8357 22.7859H16.4426V16.4323H30.0136V33.657H22.8357V30.3519L22.6572 30.2415C22.61 30.2907 22.3895 30.5078 21.997 30.8936C21.6038 31.2793 21.384 31.4904 21.3361 31.527C21.2889 31.5635 21.0894 31.7478 20.7375 32.0776C20.3864 32.4081 20.1542 32.5976 20.0411 32.6468C19.9279 32.6953 19.6957 32.8393 19.3446 33.0781C18.9935 33.3168 18.7192 33.4608 18.5233 33.5101C18.3275 33.5586 18.0474 33.657 17.684 33.804C17.3212 33.951 16.9759 34.0457 16.6487 34.0883C16.3215 34.1315 15.9435 34.1771 15.5147 34.2263C15.086 34.2755 14.6398 34.3002 14.1755 34.3002C10.6873 34.3002 7.62216 32.8707 4.97921 30.0124C2.33698 27.1542 1.01514 23.6678 1.01514 19.5547C1.01514 15.4169 2.51255 11.9253 5.50591 9.07899C8.5 6.23271 12.0861 4.80994 16.2642 4.80994C19.4541 4.80994 22.2995 5.70672 24.7995 7.49955C27.2996 9.29312 29.0371 11.6709 30.0136 14.6335H21.746C20.3059 12.699 18.4784 11.732 16.2642 11.732C14.2408 11.732 12.5207 12.4968 11.1038 14.027C9.6869 15.5572 8.97882 17.4 8.97882 19.5539C8.97882 21.684 9.71084 23.5141 11.1756 25.0443C12.6396 26.5745 14.396 27.3393 16.4426 27.3393C19.4904 27.3393 21.6212 25.8217 22.8357 22.7859Z" fill="#3CD981"/>
<path d="M53.871 30.9667C51.4072 33.1886 48.4574 34.2995 45.0237 34.2995C41.5892 34.2995 38.6401 33.1886 36.1763 30.9667C33.7119 28.7449 32.48 26.0061 32.48 22.7494C32.48 19.4928 33.7119 16.7599 36.1763 14.55C38.6401 12.3409 41.5899 11.236 45.0237 11.236C48.4581 11.236 51.4072 12.3409 53.871 14.55C56.3355 16.7599 57.5674 19.4928 57.5674 22.7494C57.5674 26.0053 56.3355 28.7442 53.871 30.9667ZM41.7829 26.0822C42.6753 27.0185 43.7555 27.487 45.0237 27.487C46.2918 27.487 47.3692 27.0192 48.2557 26.0822C49.143 25.1458 49.5863 24.0379 49.5863 22.7584C49.5863 21.4789 49.143 20.368 48.2557 19.4257C47.3692 18.4826 46.2918 18.0118 45.0237 18.0118C43.7555 18.0118 42.6753 18.4826 41.7829 19.4257C40.8898 20.368 40.4437 21.4789 40.4437 22.7584C40.4429 24.0379 40.8898 25.1451 41.7829 26.0822Z" fill="#3CD981"/>
<path d="M69.0816 34.1226H60.7065L63.6578 4.98523H76.5294C79.5497 4.98523 82.0366 6.01929 83.9207 8.05907C85.8113 10.1056 86.6123 12.6982 86.3018 15.7646C85.968 18.813 84.6491 21.3818 82.3805 23.4044C80.1155 25.4233 77.4443 26.4469 74.4408 26.4469H69.8499L69.0816 34.1226ZM61.7113 33.1907H68.264L69.0315 25.5151H74.44C77.2187 25.5151 79.6904 24.5683 81.7856 22.7001C83.8765 20.8357 85.0931 18.4691 85.4 15.6638C85.6851 12.8459 84.9865 10.5674 83.2627 8.7007C81.5571 6.85341 79.2907 5.91708 76.5287 5.91708H64.474L61.7113 33.1907ZM74.4756 19.9829H69.5981L70.46 11.4485H75.2432C76.2828 11.4485 77.1193 11.9364 77.7301 12.8996C78.3076 13.8113 78.5601 14.7715 78.4803 15.7549C78.3736 16.7404 77.9383 17.6872 77.1838 18.5825C76.401 19.5121 75.4898 19.9829 74.4756 19.9829ZM70.6037 19.051H74.4756C75.2257 19.051 75.8874 18.6981 76.499 17.9722C77.1309 17.2224 77.4936 16.4457 77.5785 15.6646C77.6409 14.8954 77.4428 14.153 76.9705 13.4092C76.5316 12.7176 75.9672 12.3811 75.2432 12.3811H71.2769L70.6037 19.051Z" fill="black"/>
<path d="M95.3648 34.1226H86.9897L89.2801 11.412H97.4194L97.2003 13.7487C98.9081 11.7701 100.792 10.7697 102.813 10.7697H103.315L102.417 19.6898H99.5625C98.8145 19.6898 98.1579 19.9628 97.5536 20.5239C96.9485 21.0872 96.6141 21.7355 96.5306 22.507L95.3648 34.1226ZM87.9953 33.1908H94.5479L95.631 22.4077C95.7391 21.4102 96.1817 20.5455 96.9471 19.833C97.7146 19.1198 98.5947 18.7579 99.5639 18.7579H101.601L102.308 11.7269C100.49 11.9089 98.7775 13.0773 97.2111 15.2073L97.0755 15.3924H96.1374L96.4233 12.3439H90.0992L87.9953 33.1908Z" fill="black"/>
<path d="M114.365 34.7649C111.014 34.7649 108.241 33.601 106.126 31.3046C104.005 29.0022 103.105 26.1074 103.451 22.7001C103.783 19.3136 105.253 16.4457 107.821 14.1776C110.381 11.9155 113.374 10.7688 116.714 10.7688C120.072 10.7688 122.841 11.9267 124.944 14.2105C127.053 16.5002 127.952 19.3882 127.619 22.7948C127.532 23.6118 127.376 24.3788 127.153 25.0786L127.05 25.3994H111.765C111.947 25.9425 112.269 26.3932 112.741 26.7684C113.365 27.2646 114.182 27.516 115.169 27.516C116.368 27.516 117.35 27.0616 118.172 26.1268L118.307 25.9731H126.913L126.637 26.6252C125.605 29.0626 123.953 31.0502 121.727 32.5319C119.502 34.0143 117.025 34.7649 114.365 34.7649ZM116.713 11.7014C113.596 11.7014 110.802 12.7728 108.411 14.8849C106.025 16.9918 104.66 19.6538 104.352 22.7956C104.034 25.9209 104.853 28.568 106.783 30.6645C108.72 32.7669 111.271 33.833 114.365 33.833C116.847 33.833 119.158 33.1325 121.234 31.75C123.105 30.504 124.541 28.8769 125.508 26.905H118.704C117.738 27.9286 116.55 28.4479 115.168 28.4479C113.976 28.4479 112.972 28.1308 112.186 27.5056C111.387 26.8707 110.9 26.0306 110.739 25.0084L110.654 24.4675H126.386C126.539 23.9169 126.65 23.3231 126.717 22.6978C127.022 19.577 126.205 16.9359 124.285 14.8513C122.36 12.7616 119.813 11.7014 116.713 11.7014ZM120.455 21.0296H110.925L111.199 20.3783C111.576 19.4837 112.212 18.6996 113.091 18.0468C113.982 17.385 114.986 17.0493 116.079 17.0493C117.161 17.0493 118.098 17.3895 118.863 18.0602C119.62 18.7235 120.111 19.5292 120.323 20.4566L120.455 21.0296ZM112.377 20.0978H119.259C119.051 19.6016 118.726 19.1637 118.276 18.7697C117.671 18.2393 116.952 17.9811 116.08 17.9811C115.169 17.9811 114.365 18.2497 113.622 18.8018C113.104 19.1868 112.687 19.621 112.377 20.0978Z" fill="black"/>
<path d="M138.755 34.7649C135.641 34.7649 133.224 33.5921 131.569 31.2785C129.936 28.9955 129.283 26.1216 129.627 22.7367C129.981 19.342 131.211 16.4748 133.283 14.2112C135.374 11.9268 138.002 10.7688 141.094 10.7688C142.686 10.7688 144.107 11.1665 145.317 11.9514C146.118 12.4699 146.758 13.0645 147.231 13.7278L148.113 4.9845H156.47L153.537 34.1218H145.167L145.37 31.9179C144.786 32.5528 144.053 33.1213 143.177 33.6152C141.825 34.3785 140.337 34.7649 138.755 34.7649ZM141.094 11.7014C138.262 11.7014 135.856 12.7609 133.943 14.8506C132.009 16.962 130.861 19.6487 130.528 22.8352C130.208 25.9806 130.804 28.6359 132.299 30.7264C133.794 32.8169 135.906 33.8331 138.755 33.8331C140.183 33.8331 141.525 33.4847 142.743 32.7975C143.958 32.1126 144.859 31.2822 145.421 30.3295L145.554 30.1057H146.45L146.164 33.1907H152.721L155.466 5.91709H148.931L147.967 15.4654H147.114L146.998 15.1789C146.62 14.2456 145.892 13.4249 144.835 12.7407C143.771 12.0513 142.513 11.7014 141.094 11.7014ZM141.889 27.7324C140.534 27.7324 139.434 27.2251 138.622 26.2246C137.818 25.2353 137.477 24.0625 137.608 22.7389C137.738 21.4303 138.307 20.2761 139.3 19.3077C140.3 18.3333 141.48 17.8394 142.808 17.8394C144.151 17.8394 145.27 18.3423 146.136 19.3346C146.998 20.3231 147.382 21.4974 147.277 22.824C147.12 24.1512 146.512 25.3054 145.468 26.2723C144.424 27.2407 143.219 27.7324 141.889 27.7324ZM142.809 18.7713C141.705 18.7713 140.761 19.1682 139.924 19.9844C139.081 20.8066 138.618 21.7384 138.509 22.8337C138.402 23.9132 138.667 24.8264 139.318 25.627C139.959 26.4163 140.8 26.8006 141.889 26.8006C143.003 26.8006 143.976 26.4014 144.863 25.58C145.751 24.7563 146.246 23.8245 146.377 22.7292C146.46 21.672 146.162 20.7588 145.463 19.9568C144.767 19.1592 143.898 18.7713 142.809 18.7713Z" fill="black"/>
<path d="M165.412 34.1226H157.037L159.327 11.412H167.702L165.412 34.1226ZM158.041 33.1907H164.594L166.696 12.3446H160.144L158.041 33.1907ZM163.61 11.077C162.32 11.077 161.234 10.6077 160.38 9.68256C159.521 8.75071 159.152 7.61368 159.285 6.30208C159.415 4.98451 160.004 3.8639 161.033 2.97308C162.053 2.09047 163.214 1.64282 164.486 1.64282C165.798 1.64282 166.896 2.10091 167.748 3.00516C168.61 3.91836 168.98 5.05986 168.847 6.39758C168.716 7.69053 168.129 8.80592 167.103 9.71464C166.081 10.6189 164.907 11.077 163.61 11.077ZM164.485 2.57542C163.419 2.57542 162.481 2.93951 161.617 3.68708C160.762 4.42718 160.294 5.31353 160.187 6.39832C160.081 7.44209 160.359 8.30604 161.038 9.04168C161.723 9.78402 162.565 10.1451 163.61 10.1451C164.698 10.1451 165.647 9.77358 166.511 9.00885C167.368 8.25009 167.838 7.36449 167.945 6.30208C168.051 5.23743 167.774 4.37123 167.098 3.65425C166.412 2.92831 165.558 2.57542 164.485 2.57542Z" fill="black"/>
<path d="M180.52 34.765C177.122 34.765 174.298 33.6026 172.124 31.3099C169.94 29.0068 169.009 26.1105 169.355 22.7002C169.687 19.3354 171.188 16.4734 173.817 14.1934C176.437 11.9209 179.478 10.7697 182.859 10.7697C185.836 10.7697 188.421 11.6993 190.542 13.5324C192.677 15.3774 193.866 17.7686 194.077 20.6395L194.114 21.1409H185.827L185.71 20.8566C185.443 20.2105 185.033 19.6927 184.455 19.2749C183.885 18.8624 183.246 18.6624 182.502 18.6624C181.418 18.6624 180.467 19.0608 179.592 19.8815C178.717 20.7029 178.236 21.6572 178.122 22.7987C178.009 23.9237 178.283 24.8593 178.959 25.6584C179.631 26.453 180.48 26.8387 181.555 26.8387C182.298 26.8387 183.004 26.6275 183.654 26.2112C184.321 25.7845 184.875 25.2316 185.302 24.5684L185.436 24.3595H193.771L193.618 24.9466C192.867 27.819 191.228 30.2013 188.748 32.0262C186.275 33.8436 183.507 34.765 180.52 34.765ZM182.859 11.7015C179.698 11.7015 176.853 12.7796 174.401 14.9059C171.959 17.0248 170.564 19.6793 170.256 22.7964C169.939 25.9195 170.786 28.5644 172.773 30.6601C174.769 32.7663 177.376 33.8339 180.52 33.8339C183.314 33.8339 185.905 32.9707 188.22 31.2674C190.354 29.6969 191.816 27.6885 192.573 25.2906H185.917C185.44 25.974 184.841 26.5485 184.133 27.0013C183.337 27.5109 182.47 27.7698 181.555 27.7698C180.221 27.7698 179.118 27.2647 178.276 26.2687C177.438 25.2779 177.083 24.0782 177.221 22.7017C177.357 21.3416 177.95 20.1605 178.982 19.1914C180.016 18.2215 181.2 17.7291 182.502 17.7291C183.426 17.7291 184.258 17.9924 184.976 18.5117C185.6 18.9638 186.083 19.5331 186.415 20.2083H193.125C192.838 17.8186 191.775 15.8146 189.959 14.2456C188.005 12.5573 185.616 11.7015 182.859 11.7015Z" fill="black"/>
<path d="M208.318 34.1226H204.034C201.74 34.1226 199.891 33.4959 198.537 32.2611C197.154 30.9972 196.575 29.1589 196.816 26.7961L197.676 18.0192H195.783L196.448 11.4134H198.359L198.859 6.49231H207.234L206.734 11.4134H210.61L209.923 18.0192H206.051L205.324 25.4225C205.266 25.9135 205.321 26.2574 205.49 26.4551C205.64 26.6319 205.915 26.7237 206.307 26.7282H209.072L208.318 34.1226ZM196.788 17.0859H198.68L197.718 26.8901C197.506 28.9679 197.971 30.4959 199.14 31.5628C200.322 32.6423 201.969 33.19 204.034 33.19H207.502L208.067 27.6578H206.302C205.637 27.6503 205.136 27.4519 204.809 27.0669C204.463 26.661 204.334 26.0731 204.423 25.3173L205.231 17.0859H209.108L209.601 12.3438H205.728L206.228 7.42267H199.675L199.175 12.3438H197.265L196.788 17.0859Z" fill="black"/>
</svg>
