<svg width="49" height="48" viewBox="0 0 49 48" fill="none" xmlns="http://www.w3.org/2000/svg">
<circle cx="24.5" cy="24" r="24" fill="#232627"/>
<path d="M20.8518 32.2418C21.6929 33.311 23.0142 34 24.5 34C25.9858 34 27.3071 33.311 28.1482 32.2418C25.7264 32.57 23.2736 32.57 20.8518 32.2418Z" fill="white" fill-opacity="0.7"/>
<path d="M31.2491 21V21.7041C31.2491 22.5491 31.4903 23.3752 31.9422 24.0782L33.0496 25.8012C34.0612 27.3749 33.289 29.5139 31.5296 30.0116C26.9273 31.3134 22.0727 31.3134 17.4704 30.0116C15.711 29.5139 14.9388 27.3749 15.9504 25.8012L17.0578 24.0782C17.5097 23.3752 17.7509 22.5491 17.7509 21.7041V21C17.7509 17.134 20.7726 14 24.5 14C28.2274 14 31.2491 17.134 31.2491 21Z" fill="white" fill-opacity="0.7"/>
</svg>
