<svg width="48" height="48" viewBox="0 0 48 48" fill="none" xmlns="http://www.w3.org/2000/svg">
<circle cx="24" cy="24" r="24" fill="white"/>
<path d="M20.3518 32.2418C21.1929 33.311 22.5142 34 24 34C25.4858 34 26.8071 33.311 27.6482 32.2418C25.2264 32.57 22.7736 32.57 20.3518 32.2418Z" fill="#141414" fill-opacity="0.7"/>
<path d="M30.7491 21V21.7041C30.7491 22.5491 30.9903 23.3752 31.4422 24.0782L32.5496 25.8012C33.5612 27.3749 32.789 29.5139 31.0296 30.0116C26.4273 31.3134 21.5727 31.3134 16.9704 30.0116C15.211 29.5139 14.4388 27.3749 15.4504 25.8012L16.5578 24.0782C17.0097 23.3752 17.2509 22.5491 17.2509 21.7041V21C17.2509 17.134 20.2726 14 24 14C27.7274 14 30.7491 17.134 30.7491 21Z" fill="#141414" fill-opacity="0.7"/>
</svg>
