<svg width="24" height="24" viewBox="0 0 24 24" fill="none" xmlns="http://www.w3.org/2000/svg">
<g id="prediction 1" clip-path="url(#clip0_34_1370)">
<path id="Vector" d="M10.5 13.125C10.7107 13.1257 10.9191 13.0819 11.1118 12.9967C11.3044 12.9114 11.4769 12.7865 11.6181 12.6301C11.7592 12.4737 11.8659 12.2894 11.931 12.089C11.9962 11.8887 12.0184 11.6769 11.9963 11.4674C11.9742 11.2578 11.9081 11.0554 11.8025 10.8731C11.6969 10.6908 11.5541 10.5328 11.3833 10.4094C11.2126 10.286 11.0178 10.1999 10.8116 10.1568C10.6054 10.1137 10.3924 10.1145 10.1865 10.1591L7.83751 5.45739C7.80496 5.39196 7.75401 5.33746 7.6909 5.3006C7.6278 5.26373 7.5553 5.24611 7.48232 5.24989C7.40934 5.25368 7.33905 5.2787 7.2801 5.3219C7.22115 5.36509 7.17611 5.42457 7.15051 5.49302L4.16963 13.443L2.60963 8.14427L1.89038 8.35577L3.76538 14.7308C3.78759 14.8062 3.83296 14.8728 3.89507 14.921C3.95719 14.9693 4.0329 14.9968 4.11151 14.9996H4.12501C4.20135 14.9997 4.27589 14.9765 4.33868 14.9331C4.40147 14.8897 4.44951 14.8281 4.47638 14.7566L7.54913 6.56252L9.51826 10.5C9.28692 10.6994 9.12226 10.9649 9.04648 11.2608C8.97069 11.5566 8.98742 11.8686 9.0944 12.1546C9.20138 12.4407 9.39348 12.6871 9.64481 12.8606C9.89613 13.0341 10.1946 13.1264 10.5 13.125ZM10.5 10.875C10.6483 10.875 10.7933 10.919 10.9167 11.0014C11.04 11.0838 11.1361 11.201 11.1929 11.338C11.2497 11.4751 11.2645 11.6259 11.2356 11.7713C11.2067 11.9168 11.1352 12.0505 11.0303 12.1553C10.9254 12.2602 10.7918 12.3317 10.6463 12.3606C10.5008 12.3895 10.35 12.3747 10.213 12.3179C10.0759 12.2612 9.95881 12.165 9.8764 12.0417C9.79399 11.9184 9.75001 11.7734 9.75001 11.625C9.75001 11.4261 9.82902 11.2353 9.96968 11.0947C10.1103 10.954 10.3011 10.875 10.5 10.875Z" fill="black"/>
<path id="Vector_2" d="M14.6848 15.0385L15.2004 14.4944L15.7451 15.0105L15.2295 15.5547L14.6848 15.0385Z" fill="black"/>
<path id="Vector_3" d="M13.5957 14.0062L14.1113 13.4621L14.656 13.9783L14.1404 14.5224L13.5957 14.0062Z" fill="black"/>
<path id="Vector_4" d="M12.5068 12.9742L13.0225 12.4301L13.5671 12.9462L13.0515 13.4903L12.5068 12.9742Z" fill="black"/>
<path id="Vector_5" d="M18.75 8.25C19.4917 8.25 20.2167 8.03007 20.8334 7.61801C21.4501 7.20596 21.9307 6.62029 22.2145 5.93506C22.4984 5.24984 22.5726 4.49584 22.4279 3.76841C22.2833 3.04098 21.9261 2.3728 21.4017 1.84835C20.8772 1.3239 20.209 0.966751 19.4816 0.822057C18.7542 0.677362 18.0002 0.751625 17.3149 1.03545C16.6297 1.31928 16.044 1.79993 15.632 2.41661C15.2199 3.0333 15 3.75832 15 4.5C15.0011 5.49423 15.3965 6.44742 16.0996 7.15045C16.8026 7.85347 17.7558 8.24891 18.75 8.25ZM18.75 1.5C19.3433 1.5 19.9234 1.67595 20.4167 2.00559C20.9101 2.33524 21.2946 2.80377 21.5216 3.35195C21.7487 3.90013 21.8081 4.50333 21.6924 5.08527C21.5766 5.66722 21.2909 6.20176 20.8713 6.62132C20.4518 7.04088 19.9172 7.3266 19.3353 7.44236C18.7533 7.55811 18.1501 7.4987 17.602 7.27164C17.0538 7.04458 16.5852 6.66006 16.2556 6.16671C15.9259 5.67336 15.75 5.09335 15.75 4.5C15.7509 3.70463 16.0673 2.94208 16.6297 2.37967C17.1921 1.81725 17.9546 1.50089 18.75 1.5Z" fill="black"/>
<path id="Vector_6" d="M18.75 22.125C19.4917 22.125 20.2167 21.9051 20.8334 21.493C21.4501 21.081 21.9307 20.4953 22.2145 19.8101C22.4984 19.1248 22.5726 18.3708 22.4279 17.6434C22.2833 16.916 21.9261 16.2478 21.4017 15.7234C20.8772 15.1989 20.209 14.8418 19.4816 14.6971C18.7542 14.5524 18.0002 14.6266 17.3149 14.9105C16.6297 15.1943 16.044 15.6749 15.632 16.2916C15.2199 16.9083 15 17.6333 15 18.375C15.0011 19.3692 15.3965 20.3224 16.0996 21.0254C16.8026 21.7285 17.7558 22.1239 18.75 22.125ZM18.75 15.375C19.3433 15.375 19.9234 15.5509 20.4167 15.8806C20.9101 16.2102 21.2946 16.6788 21.5216 17.227C21.7487 17.7751 21.8081 18.3783 21.6924 18.9603C21.5766 19.5422 21.2909 20.0768 20.8713 20.4963C20.4518 20.9159 19.9172 21.2016 19.3353 21.3174C18.7533 21.4331 18.1501 21.3737 17.602 21.1466C17.0538 20.9196 16.5852 20.5351 16.2556 20.0417C15.9259 19.5484 15.75 18.9683 15.75 18.375C15.7509 17.5796 16.0673 16.8171 16.6297 16.2547C17.1921 15.6923 17.9546 15.3759 18.75 15.375Z" fill="black"/>
<path id="Vector_7" d="M12.4182 10.2996L12.9485 9.76923L13.4789 10.2996L12.9485 10.8299L12.4182 10.2996Z" fill="black"/>
<path id="Vector_8" d="M13.479 9.23901L14.0093 8.70868L14.5397 9.23901L14.0093 9.76934L13.479 9.23901Z" fill="black"/>
<path id="Vector_9" d="M14.5396 8.17896L15.0699 7.64863L15.6002 8.17896L15.0699 8.70929L14.5396 8.17896Z" fill="black"/>
<path id="Vector_10" d="M17.2499 4.50003H17.6249V6.37503C17.6249 6.47449 17.6644 6.56987 17.7347 6.64019C17.8051 6.71052 17.9004 6.75003 17.9999 6.75003H19.4999C19.5994 6.75003 19.6947 6.71052 19.7651 6.64019C19.8354 6.56987 19.8749 6.47449 19.8749 6.37503V4.50003H20.2499C20.3206 4.50006 20.3898 4.48012 20.4496 4.44251C20.5094 4.4049 20.5574 4.35116 20.588 4.28747C20.6186 4.22378 20.6306 4.15274 20.6226 4.08254C20.6146 4.01233 20.5869 3.94581 20.5428 3.89065L19.0428 2.01565C19.0064 1.9737 18.9614 1.94006 18.9109 1.91701C18.8603 1.89395 18.8054 1.88202 18.7499 1.88202C18.6944 1.88202 18.6395 1.89395 18.5889 1.91701C18.5384 1.94006 18.4934 1.9737 18.457 2.01565L16.957 3.89065C16.9129 3.94581 16.8852 4.01233 16.8772 4.08254C16.8692 4.15274 16.8812 4.22378 16.9118 4.28747C16.9424 4.35116 16.9904 4.4049 17.0502 4.44251C17.11 4.48012 17.1792 4.50006 17.2499 4.50003ZM18.7499 2.85003L19.4706 3.75003C19.3763 3.75741 19.2883 3.80015 19.2242 3.86969C19.1601 3.93923 19.1246 4.03044 19.1249 4.12503V6.00003H18.3749V4.12503C18.3752 4.03044 18.3397 3.93923 18.2756 3.86969C18.2115 3.80015 18.1234 3.75741 18.0291 3.75003L18.7499 2.85003Z" fill="black"/>
<path id="Vector_11" d="M18.457 20.8594C18.4922 20.9033 18.5367 20.9388 18.5874 20.9631C18.6381 20.9875 18.6936 21.0002 18.7499 21.0002C18.8061 21.0002 18.8617 20.9875 18.9124 20.9631C18.9631 20.9388 19.0076 20.9033 19.0428 20.8594L20.5428 18.9844C20.5869 18.9292 20.6146 18.8627 20.6226 18.7925C20.6306 18.7223 20.6186 18.6512 20.588 18.5876C20.5574 18.5239 20.5094 18.4701 20.4496 18.4325C20.3898 18.3949 20.3206 18.375 20.2499 18.375H19.8749V16.5C19.8749 16.4005 19.8354 16.3052 19.7651 16.2348C19.6947 16.1645 19.5994 16.125 19.4999 16.125H17.9999C17.9004 16.125 17.8051 16.1645 17.7347 16.2348C17.6644 16.3052 17.6249 16.4005 17.6249 16.5V18.375H17.2499C17.1792 18.375 17.11 18.3949 17.0502 18.4325C16.9904 18.4701 16.9424 18.5239 16.9118 18.5876C16.8812 18.6512 16.8692 18.7223 16.8772 18.7925C16.8852 18.8627 16.9129 18.9292 16.957 18.9844L18.457 20.8594ZM18.3749 18.75V16.875H19.1249V18.75C19.1246 18.8446 19.1601 18.9358 19.2242 19.0053C19.2883 19.0749 19.3763 19.1176 19.4706 19.125L18.7499 20.025L18.0291 19.125C18.1234 19.1176 18.2115 19.0749 18.2756 19.0053C18.3397 18.9358 18.3752 18.8446 18.3749 18.75Z" fill="black"/>
<path id="Vector_12" d="M23.625 23.625H0.75C0.650544 23.625 0.555161 23.5855 0.484835 23.5152C0.414509 23.4448 0.375 23.3495 0.375 23.25V0.375H1.125V22.875H23.625V23.625Z" fill="black"/>
</g>
<defs>
<clipPath id="clip0_34_1370">
<rect width="24" height="24" fill="white"/>
</clipPath>
</defs>
</svg>
