<svg width="24" height="24" viewBox="0 0 24 24" fill="none" xmlns="http://www.w3.org/2000/svg">
<g id="Profile 1" clip-path="url(#clip0_33_431)">
<g id="Page-1">
<g id="035---Helmet">
<path id="Oval" d="M19.9999 15.2C20.2208 15.2 20.3999 15.0209 20.3999 14.8C20.3999 14.5791 20.2208 14.4 19.9999 14.4C19.7789 14.4 19.5999 14.5791 19.5999 14.8C19.5999 15.0209 19.7789 15.2 19.9999 15.2Z" fill="#141414"/>
<path id="Oval_2" d="M21.6 15.2C21.8209 15.2 22 15.0209 22 14.8C22 14.5791 21.8209 14.4 21.6 14.4C21.379 14.4 21.2 14.5791 21.2 14.8C21.2 15.0209 21.379 15.2 21.6 15.2Z" fill="#141414"/>
<path id="Oval_3" d="M21.2 16.8C21.421 16.8 21.6 16.6209 21.6 16.4C21.6 16.1791 21.421 16 21.2 16C20.9791 16 20.8 16.1791 20.8 16.4C20.8 16.6209 20.9791 16.8 21.2 16.8Z" fill="#141414"/>
<path id="Oval_4" d="M20.4 18.4C20.6209 18.4 20.8 18.2209 20.8 18C20.8 17.7791 20.6209 17.6 20.4 17.6C20.1791 17.6 20 17.7791 20 18C20 18.2209 20.1791 18.4 20.4 18.4Z" fill="#141414"/>
<path id="Oval_5" d="M18.7999 17.6C19.0208 17.6 19.1999 17.4209 19.1999 17.2C19.1999 16.9791 19.0208 16.8 18.7999 16.8C18.579 16.8 18.3999 16.9791 18.3999 17.2C18.3999 17.4209 18.579 17.6 18.7999 17.6Z" fill="#141414"/>
<path id="Oval_6" d="M19.6 16.4C19.8209 16.4 20 16.2209 20 16C20 15.7791 19.8209 15.6 19.6 15.6C19.379 15.6 19.2 15.7791 19.2 16C19.2 16.2209 19.379 16.4 19.6 16.4Z" fill="#141414"/>
<path id="Shape" d="M3.04237 10.7128C2.52237 11.0916 1.87237 11.148 1.06397 10.8852C0.798972 10.7969 0.507091 10.8532 0.293943 11.0337C0.0807943 11.2142 -0.0227519 11.4929 0.0207714 11.7688C0.147971 12.5972 0.725172 14.0772 3.15997 14.68C3.9324 14.9357 4.77994 14.8159 5.45117 14.356C6.36877 13.6472 6.51997 12.2852 6.54757 11.542C6.80717 11.6404 7.13117 11.8536 6.94757 12.574C6.90709 12.7341 6.9691 12.9025 7.10368 12.9982C7.23826 13.0938 7.41775 13.0969 7.55557 13.006C7.70157 12.9096 8.96917 11.944 8.54917 7.77241C8.42917 6.58321 8.79317 5.87041 9.66917 5.57961C9.68871 5.69747 9.67713 5.8184 9.63557 5.93041C9.5498 6.19895 9.61624 6.49287 9.80917 6.69841C10.006 6.91313 10.3027 7.00594 10.5868 6.94161C10.7839 6.86486 11.0054 6.88362 11.1868 6.99241C10.2867 7.73302 9.71688 8.80011 9.60197 9.96001C9.29517 13.0292 10.3676 14.578 11.0776 15.6032C11.2973 15.8865 11.4797 16.1967 11.6204 16.5264C11.7924 17.0424 10.5004 18.3404 9.94917 18.8944L9.83357 19.01C9.60702 19.2392 9.5401 19.5819 9.66381 19.8795C9.78753 20.1771 10.0777 20.3714 10.4 20.3724C12.5468 20.3908 16.0912 21.0148 20.7872 23.884C21.0623 24.0525 21.4116 24.0392 21.6732 23.8504C21.934 23.6681 22.0577 23.3455 21.9856 23.0356C21.6841 21.9171 21.2491 20.839 20.69 19.8244C20.8792 19.8644 21.0668 19.9104 21.2628 19.9444C21.5889 20.0039 21.9181 19.8577 22.0928 19.576C23.2206 17.6713 23.7587 15.4751 23.6392 13.2648C23.625 13.0269 23.505 12.8078 23.3121 12.6677C23.1193 12.5276 22.8739 12.4812 22.6432 12.5412C21.5126 12.8202 20.361 13.006 19.2 13.0968V12.1404C20.6479 11.683 22.0116 10.9927 23.2376 10.0968C23.5152 9.87709 23.6145 9.50043 23.4812 9.17241C23.0412 8.03441 21.9344 7.32361 21.3164 7.00321C20.9562 6.81379 20.5111 6.925 20.2824 7.26161C20.264 7.28801 20.2424 7.31241 20.2256 7.33881C18.4745 5.93532 16.208 5.34503 13.9948 5.71601C14.0348 4.52161 13.8668 2.76921 12.7736 1.51081C11.9692 0.58521 10.8 0.0772097 9.30117 9.66934e-06C8.95258 -0.0169678 8.6308 0.186564 8.49677 0.50881C8.39149 0.752534 8.41804 1.03316 8.56717 1.25281C7.53039 1.22497 6.50812 1.50112 5.62637 2.04721C4.33317 2.87121 3.46437 4.27921 3.04477 6.23241C2.98015 6.53135 3.09012 6.84113 3.32877 7.03241C3.55936 7.22128 3.87662 7.26428 4.14917 7.14361C4.25208 7.09849 4.35929 7.06392 4.46917 7.04041C4.40357 7.92921 4.13837 9.91761 3.04237 10.7128ZM20.944 7.71281C21.464 7.98321 22.3916 8.56961 22.7392 9.47281C22.078 9.99761 20.12 11.2848 15.982 12.224C15.9599 12.0245 15.9001 11.8311 15.8056 11.654C17.1232 11.0992 19.4536 9.88001 20.944 7.71121V7.71281ZM15.2 12.4C15.2 12.8418 14.8418 13.2 14.4 13.2C13.9581 13.2 13.6 12.8418 13.6 12.4C13.6 11.9582 13.9581 11.6 14.4 11.6C14.8418 11.6 15.2 11.9582 15.2 12.4ZM19.732 7.96801C18.4839 9.32609 16.9362 10.3743 15.212 11.0292C14.967 10.8807 14.6864 10.8015 14.4 10.8C13.6046 10.7975 12.9282 11.3796 12.8121 12.1665C12.696 12.9533 13.1755 13.706 13.9377 13.9333C14.6999 14.1606 15.5133 13.7935 15.8472 13.0716C16.8 12.8644 17.6484 12.64 18.4 12.4036V13.1528C18.246 13.1616 18.0964 13.1716 17.9352 13.178C17.0738 13.2129 16.395 13.924 16.4 14.786V14.92C16.224 14.8133 16.046 14.6989 15.866 14.5768C15.7481 14.494 15.5948 14.4809 15.4646 14.5426C15.3344 14.6043 15.2475 14.7313 15.237 14.8749C15.2265 15.0186 15.2941 15.1569 15.414 15.2368C15.7975 15.4956 16.1954 15.7327 16.6056 15.9468C16.6669 15.9804 16.7356 15.9983 16.8056 15.9988C16.9209 15.9983 17.0304 15.948 17.1059 15.8609C17.1815 15.7737 17.2158 15.6582 17.2 15.544V14.786C17.1948 14.3534 17.5345 13.9951 17.9668 13.9772C19.6106 13.9322 21.2446 13.7082 22.84 13.3092C22.9433 15.3576 22.4449 17.3914 21.4064 19.16C18.7614 18.6863 16.2973 17.4954 14.2828 15.7172C14.1265 15.561 13.8732 15.5611 13.717 15.7174C13.5608 15.8737 13.5609 16.127 13.7172 16.2832C15.4059 17.8108 17.4238 18.9291 19.6144 19.5512C20.3035 20.6915 20.8376 21.9186 21.2024 23.2C17.3072 20.82 13.6744 19.6 10.4024 19.5724L10.5168 19.4576C11.4416 18.5284 12.7084 17.2576 12.3804 16.2724C12.219 15.8689 12.0021 15.4899 11.736 15.1464C11.054 14.1636 10.12 12.8156 10.4 10.04C10.544 8.60001 11.5104 7.42201 13.0512 6.81121C15.1824 5.96521 17.7648 6.42401 19.732 7.96801ZM5.28797 6.59601C5.28797 6.3751 5.10889 6.19601 4.88797 6.19601C4.52422 6.19309 4.16351 6.26243 3.82677 6.40001C4.19877 4.66881 4.94677 3.43361 6.04757 2.72761C7.02014 2.14413 8.17056 1.93109 9.28757 2.12761C9.42804 2.1586 9.57442 2.11295 9.67237 2.00761C9.76958 1.90099 9.80183 1.75028 9.75677 1.61321C9.6546 1.30807 9.48461 1.03004 9.25957 0.80001C10.5344 0.86521 11.5136 1.28001 12.1696 2.03601C13.1596 3.17561 13.2496 4.86081 13.1848 5.91601C13.04 5.96201 12.896 6.01121 12.7544 6.06761C12.4391 6.19227 12.1351 6.34362 11.8456 6.52001C11.4757 6.12712 10.9088 5.98955 10.4 6.16921C10.487 5.91804 10.5031 5.64777 10.4468 5.38801C10.3901 5.17326 10.2471 4.99154 10.0516 4.88605C9.85619 4.78056 9.62578 4.76071 9.41517 4.83121C8.54877 5.11121 7.55717 5.85921 7.75557 7.85201C7.92528 9.03344 7.871 10.2363 7.59557 11.3976C7.41396 11.1205 7.14724 10.91 6.83557 10.7976C6.5866 10.699 6.30508 10.7289 6.08237 10.8776C5.86482 11.0233 5.73277 11.2666 5.72917 11.5284C5.72357 12.0148 5.63797 13.202 4.96237 13.7236C4.48302 14.0301 3.88859 14.0969 3.35317 13.9044C1.46837 13.4376 0.931171 12.4196 0.813571 11.6452C1.87237 11.9888 2.78117 11.8932 3.51477 11.36C5.26797 10.0848 5.28797 6.73801 5.28797 6.59601Z" fill="#141414"/>
</g>
</g>
</g>
<defs>
<clipPath id="clip0_33_431">
<rect width="24" height="24" fill="white"/>
</clipPath>
</defs>
</svg>
