<svg width="46" height="31" viewBox="0 0 46 31" fill="none" xmlns="http://www.w3.org/2000/svg">
<rect x="0.5" y="0.5" width="45" height="30" rx="4" fill="#FF393D"/>
<path d="M12.336 20.64C10.628 20.64 9.27 19.632 8.92 18.19L10.208 17.602C10.488 18.498 11.23 19.184 12.322 19.184C13.232 19.184 14.016 18.708 14.016 17.714C14.016 16.846 13.442 16.468 12.364 16.034L11.72 15.782C10.306 15.222 9.298 14.452 9.298 13.038C9.298 11.428 10.628 10.42 12.266 10.42C13.96 10.42 14.954 11.442 15.374 12.506L14.184 13.15C13.778 12.31 13.176 11.848 12.322 11.848C11.51 11.848 10.866 12.282 10.866 13.052C10.866 13.654 11.23 14.116 12.35 14.564L13.022 14.83C14.716 15.502 15.654 16.272 15.654 17.728C15.654 19.66 14.002 20.64 12.336 20.64ZM16.8442 20.5V10.56H22.3322V12.03H18.4262V14.788H21.7302V16.216H18.4262V19.03H22.4582V20.5H16.8442ZM23.7759 20.5V10.56H25.3579V19.03H29.4599V20.5H23.7759ZM30.7075 20.5V10.56H32.2895V19.03H36.3915V20.5H30.7075Z" fill="#F9F9F9"/>
</svg>
