<svg width="24" height="24" viewBox="0 0 24 24" fill="none" xmlns="http://www.w3.org/2000/svg">
<g id="Tradebook 1">
<g id="strategy">
<g id="Group">
<path id="Vector" d="M20.0179 6.432L12.375 2.39887V0.75C12.375 0.543 12.207 0.375 12 0.375C11.9321 0.375 10.4306 0.388875 9.86887 1.51425C9.54487 1.5435 8.93812 1.63125 8.18512 1.89638C6.84712 2.36738 3.375 5.10038 3.375 12V16.125C3.375 16.2308 3.42 16.3316 3.49838 16.4025C3.57675 16.4734 3.68137 16.5075 3.78712 16.4981C3.804 16.4963 5.559 16.3365 6.51187 17.2016C6.87937 17.535 7.0695 17.9801 7.10888 18.543C6.45675 18.837 6 19.4899 6 20.25V21.375C5.37975 21.375 4.875 21.8797 4.875 22.5V23.25C4.875 23.4574 5.043 23.625 5.25 23.625H18.75C18.957 23.625 19.125 23.4574 19.125 23.25V22.5C19.125 21.8797 18.6202 21.375 18 21.375V20.25C18 19.5236 17.5804 18.8993 16.9751 18.588C17.9332 17.763 18.1676 16.2656 18.18 16.1786C18.2044 16.0084 18.1102 15.843 17.9516 15.7781C14.5654 14.3857 12.9007 10.5428 12.3292 8.9085C13.2982 9.07987 14.5969 8.78438 15.1106 8.64937L18.1027 10.1261C18.6697 10.4062 19.3838 10.1756 19.6631 9.624L20.5031 7.96575C20.7814 7.41638 20.5654 6.72938 20.0179 6.432ZM18.375 22.5V22.875H5.625V22.5C5.625 22.293 5.79338 22.125 6 22.125H18C18.2066 22.125 18.375 22.293 18.375 22.5ZM16.125 19.125C16.7452 19.125 17.25 19.6297 17.25 20.25V21.375H6.75V20.25C6.75 19.6297 7.25475 19.125 7.875 19.125H16.125ZM19.8341 7.62638L18.9941 9.28463C18.9015 9.468 18.63 9.55013 18.4346 9.45337L15.315 7.914C15.2321 7.87313 15.1369 7.86412 15.0476 7.88962C14.0295 8.17575 12.4091 8.39437 11.9929 7.98337C11.8733 7.86562 11.6891 7.84125 11.5429 7.92487C11.397 8.0085 11.3243 8.17913 11.3659 8.34225C11.4285 8.58938 12.9221 14.3036 17.3801 16.3474C17.2297 16.9597 16.7501 18.375 15.5291 18.375H7.875C7.86788 18.375 7.8615 18.3769 7.85475 18.3773C7.78275 17.6685 7.5015 17.0861 7.01288 16.644C6.13275 15.8475 4.818 15.7346 4.14375 15.7346C4.13738 15.7346 4.13138 15.7346 4.12538 15.7346V12C4.12538 5.568 7.31663 2.99738 8.4345 2.60362C9.417 2.25787 10.119 2.25 10.125 2.25C10.2866 2.25 10.4299 2.1465 10.4809 1.99312C10.6627 1.44488 11.2369 1.24275 11.625 1.16813V2.625C11.625 2.76413 11.7019 2.89162 11.8249 2.9565L19.6639 7.09313C19.8514 7.19475 19.9294 7.43888 19.8341 7.62638Z" fill="#141414"/>
<path id="Vector_2" d="M7.80786 4.16438C7.62261 4.07175 7.39761 4.14713 7.30499 4.33201C7.21086 4.52063 5.01036 9.02588 6.52649 15.0904C6.56961 15.2614 6.72224 15.375 6.89024 15.375C6.92061 15.375 6.95099 15.3713 6.98174 15.3638C7.18274 15.3135 7.30461 15.1099 7.25474 14.9093C5.80874 9.12526 7.95449 4.71151 7.97661 4.66726C8.06849 4.48201 7.99311 4.257 7.80786 4.16438Z" fill="#141414"/>
<path id="Vector_3" d="M11.8323 4.16435C11.6471 4.25697 11.5721 4.48235 11.6647 4.6676C11.7573 4.85285 11.9819 4.92785 12.1679 4.83522C12.2654 4.78685 12.5977 4.65747 12.7897 5.0426C12.8553 5.17422 12.9877 5.24997 13.1253 5.24997C13.1816 5.24997 13.2389 5.23722 13.2926 5.2106C13.4778 5.11797 13.5528 4.8926 13.4602 4.70735C13.0623 3.91085 12.2684 3.94647 11.8323 4.16435Z" fill="#141414"/>
</g>
</g>
</g>
</svg>
