<svg width="25" height="24" viewBox="0 0 25 24" fill="none" xmlns="http://www.w3.org/2000/svg">
<g id="Tradebook 1">
<g id="strategy">
<g id="Group">
<path id="Vector" d="M20.6846 6.432L13.0417 2.39887V0.75C13.0417 0.543 12.8737 0.375 12.6667 0.375C12.5989 0.375 11.0974 0.388875 10.5356 1.51425C10.2116 1.5435 9.60487 1.63125 8.85187 1.89638C7.51387 2.36738 4.04175 5.10038 4.04175 12V16.125C4.04175 16.2308 4.08675 16.3316 4.16512 16.4025C4.2435 16.4734 4.34812 16.5075 4.45387 16.4981C4.47075 16.4963 6.22575 16.3365 7.17862 17.2016C7.54612 17.535 7.73625 17.9801 7.77562 18.543C7.1235 18.837 6.66675 19.4899 6.66675 20.25V21.375C6.0465 21.375 5.54175 21.8797 5.54175 22.5V23.25C5.54175 23.4574 5.70975 23.625 5.91675 23.625H19.4167C19.6237 23.625 19.7917 23.4574 19.7917 23.25V22.5C19.7917 21.8797 19.287 21.375 18.6667 21.375V20.25C18.6667 19.5236 18.2471 18.8993 17.6419 18.588C18.6 17.763 18.8344 16.2656 18.8467 16.1786C18.8711 16.0084 18.777 15.843 18.6184 15.7781C15.2321 14.3857 13.5675 10.5428 12.996 8.9085C13.965 9.07987 15.2636 8.78438 15.7774 8.64937L18.7695 10.1261C19.3365 10.4062 20.0505 10.1756 20.3299 9.624L21.1699 7.96575C21.4481 7.41638 21.2321 6.72938 20.6846 6.432ZM19.0417 22.5V22.875H6.29175V22.5C6.29175 22.293 6.46012 22.125 6.66675 22.125H18.6667C18.8734 22.125 19.0417 22.293 19.0417 22.5ZM16.7917 19.125C17.412 19.125 17.9167 19.6297 17.9167 20.25V21.375H7.41675V20.25C7.41675 19.6297 7.9215 19.125 8.54175 19.125H16.7917ZM20.5009 7.62638L19.6609 9.28463C19.5682 9.468 19.2967 9.55013 19.1014 9.45337L15.9817 7.914C15.8989 7.87313 15.8036 7.86412 15.7144 7.88962C14.6962 8.17575 13.0759 8.39437 12.6596 7.98337C12.54 7.86562 12.3559 7.84125 12.2096 7.92487C12.0637 8.0085 11.991 8.17913 12.0326 8.34225C12.0952 8.58938 13.5889 14.3036 18.0469 16.3474C17.8965 16.9597 17.4169 18.375 16.1959 18.375H8.54175C8.53462 18.375 8.52825 18.3769 8.5215 18.3773C8.4495 17.6685 8.16825 17.0861 7.67962 16.644C6.7995 15.8475 5.48475 15.7346 4.8105 15.7346C4.80412 15.7346 4.79812 15.7346 4.79212 15.7346V12C4.79212 5.568 7.98337 2.99738 9.10125 2.60362C10.0837 2.25787 10.7857 2.25 10.7917 2.25C10.9534 2.25 11.0966 2.1465 11.1476 1.99312C11.3295 1.44488 11.9036 1.24275 12.2917 1.16813V2.625C12.2917 2.76413 12.3686 2.89162 12.4916 2.9565L20.3306 7.09313C20.5181 7.19475 20.5961 7.43888 20.5009 7.62638Z" fill="white"/>
<path id="Vector_2" d="M8.47461 4.16438C8.28936 4.07175 8.06436 4.14713 7.97173 4.33201C7.87761 4.52063 5.67711 9.02588 7.19323 15.0904C7.23636 15.2614 7.38898 15.375 7.55698 15.375C7.58736 15.375 7.61773 15.3713 7.64848 15.3638C7.84948 15.3135 7.97136 15.1099 7.92148 14.9093C6.47548 9.12526 8.62123 4.71151 8.64336 4.66726C8.73523 4.48201 8.65986 4.257 8.47461 4.16438Z" fill="white"/>
<path id="Vector_3" d="M12.4991 4.16438C12.3138 4.257 12.2388 4.48238 12.3314 4.66763C12.4241 4.85288 12.6487 4.92788 12.8347 4.83525C12.9322 4.78688 13.2644 4.6575 13.4564 5.04263C13.5221 5.17425 13.6544 5.25 13.7921 5.25C13.8483 5.25 13.9057 5.23725 13.9593 5.21063C14.1446 5.118 14.2196 4.89263 14.1269 4.70738C13.7291 3.91088 12.9352 3.9465 12.4991 4.16438Z" fill="white"/>
</g>
</g>
</g>
</svg>
